<?xml version="1.0" standalone="no"?>
<svg viewBox="0 0 200 200" xmlns="http://www.w3.org/2000/svg">
  <path fill="#57B0EA" d="M23.7,-36.5C28,-34,26.9,-22.9,35.2,-13.5C43.6,-4.1,61.3,3.6,66.3,13.7C71.3,23.7,63.5,36,53.6,45.1C43.6,54.2,31.5,60.2,19.4,62C7.2,63.8,-5.1,61.4,-18.4,59.1C-31.7,56.8,-46,54.5,-51.5,45.9C-57,37.2,-53.7,22.2,-51,10.2C-48.3,-1.8,-46.1,-10.9,-44.9,-23.4C-43.7,-35.9,-43.6,-51.7,-36.3,-52.8C-29,-53.9,-14.5,-40.3,-2.4,-36.5C9.7,-32.8,19.4,-39,23.7,-36.5Z" transform="translate(100 100)" />
</svg>
